<svg width="19" height="23" viewBox="0 0 19 23" fill="none" xmlns="http://www.w3.org/2000/svg">
<path d="M8.04345 13.1194C8.04345 13.1194 10.3196 15.8958 11.2463 16.1171L13.1485 13.7632C13.1485 13.7632 13.8963 12.878 14.693 13.7833L17.7982 17.6261C17.7982 17.6261 18.3022 18.7728 17.717 19.477L16.205 21.3481C16.205 21.3481 13.5387 23.4606 9.2628 20.0806C9.2628 20.0806 7.24681 18.7728 5.37714 16.4189" stroke="#FF5700" stroke-width="1.5" stroke-miterlimit="10"/>
<path d="M8.20614 13.3211C8.20614 13.3211 5.96254 10.5044 5.76744 9.35763L7.66962 7.00369C7.66962 7.00369 8.38497 6.07821 7.65336 5.09238L4.53183 1.24963C4.53183 1.24963 3.60512 0.62594 3.03609 1.35023L1.5241 3.2213C1.5241 3.2213 -0.182987 6.52084 2.56461 11.8122C2.56461 11.8122 3.62138 14.3069 5.53982 16.6206" stroke="#FF5700" stroke-width="1.5" stroke-miterlimit="10"/>
</svg>
