<svg width="34" height="27" viewBox="0 0 34 27" fill="none" xmlns="http://www.w3.org/2000/svg">
<path fill-rule="evenodd" clip-rule="evenodd" d="M33.4167 0H0.586965C0.263072 0 0 0.26339 0 0.587674V26.4123C0 26.7359 0.263072 27 0.586965 27H33.4167C33.7399 27 34 26.7359 34 26.4123V0.587674C34 0.26339 33.7399 0 33.4167 0ZM1.17393 25.8247H32.8297V1.17535H1.17393V25.8247Z" fill="#5F5F5F"/>
<path fill-rule="evenodd" clip-rule="evenodd" d="M9.50157 13C11.4319 13 13 11.4287 13 9.50157C13 7.56813 11.4319 6 9.50157 6C7.57127 6 6 7.56813 6 9.49843C6 11.4287 7.57127 13 9.50157 13ZM9.50157 7.25466C10.7382 7.25466 11.7446 8.26184 11.7446 9.49843C11.7446 10.735 10.7382 11.7414 9.50157 11.7414C8.26498 11.7414 7.2578 10.735 7.2578 9.50157C7.2578 8.26498 8.26498 7.25466 9.50157 7.25466Z" fill="#5F5F5F"/>
<path fill-rule="evenodd" clip-rule="evenodd" d="M3.5979 24C3.73715 24 3.87715 23.9498 3.99034 23.8486L13.709 15.1068L19.8466 21.3755C20.0789 21.6129 20.4542 21.6129 20.6873 21.3755C20.9196 21.1373 20.9196 20.7538 20.6873 20.5164L17.8248 17.5883L23.2937 11.468L30.0016 17.7519C30.2459 17.9809 30.6212 17.9627 30.8446 17.7161C31.0658 17.4665 31.0486 17.083 30.8074 16.854L23.6571 10.1576C23.5409 10.0503 23.3867 9.99708 23.2296 10.0001C23.0725 10.0055 22.9213 10.077 22.8163 10.1957L16.9811 16.7261L14.1536 13.8399C13.9324 13.6116 13.575 13.6024 13.3397 13.8132L3.20173 22.9332C2.9545 23.1561 2.93142 23.5419 3.14961 23.7945C3.26578 23.9315 3.43184 24 3.5979 24Z" fill="#5F5F5F"/>
</svg>
