<svg width="15" height="10" viewBox="0 0 15 10" fill="none" xmlns="http://www.w3.org/2000/svg">
<path d="M7.53097 9.49841C7.7743 9.5132 8.0241 9.4257 8.21502 9.22161C8.21506 9.22157 8.21511 9.22152 8.21515 9.22147L14.2213 2.78476C14.593 2.38642 14.5927 1.71888 14.2215 1.3215L14.2211 1.32106L13.7198 0.783143C13.368 0.40574 12.8022 0.405428 12.4496 0.783351L7.86557 5.69596L7.5 6.08774L7.13443 5.69596L2.55043 0.783351C2.19779 0.405429 1.63197 0.40574 1.28021 0.783143L0.778906 1.32106L0.778499 1.3215C0.407269 1.71888 0.407 2.38642 0.778693 2.78476L6.78643 9.22182L6.78682 9.22224C6.976 9.42541 7.22469 9.51327 7.47043 9.4984L7.5007 9.49657L7.53097 9.49841Z" fill="#008FC6" stroke="white"/>
</svg>
