<svg width="32" height="32" viewBox="0 0 32 32" fill="none" xmlns="http://www.w3.org/2000/svg">
<path fill-rule="evenodd" clip-rule="evenodd" d="M0.0545654 15.9999C0.0545654 7.20149 7.2126 0.043457 16.0108 0.043457C24.8089 0.043457 31.9672 7.20149 31.9675 15.9999C31.9675 24.7986 24.8092 31.9564 16.0108 31.9564C7.2126 31.9564 0.0545654 24.7986 0.0545654 15.9999ZM1.62834 15.9999C1.62834 23.9307 8.08027 30.3826 16.0108 30.3826C23.9413 30.3826 30.3934 23.9307 30.3937 15.9999C30.3937 8.06942 23.9413 1.61723 16.0108 1.61723C8.08027 1.61723 1.62834 8.06942 1.62834 15.9999Z" fill="white"/>
<path d="M20.9291 6.63721H17.4678C17.4597 6.63721 17.4518 6.63747 17.4442 6.63826C13.9496 6.64927 13.4933 9.0894 13.4914 11.2221C13.4867 11.2421 13.4841 11.2625 13.4841 11.2838V12.7809H11.0925C10.9477 12.7809 10.8302 12.8985 10.8302 13.0432V16.7356C10.8302 16.8806 10.9477 16.9979 11.0925 16.9979H13.4841V25.1004C13.4841 25.2455 13.6016 25.3627 13.7464 25.3627H17.2367C17.3818 25.3627 17.499 25.2455 17.499 25.1004V16.9981H20.9288C21.0738 16.9981 21.1911 16.8809 21.1911 16.7358V13.0435C21.1911 12.8987 21.0738 12.7812 20.9288 12.7812H17.2367V10.7964H20.9288C21.0738 10.7964 21.1911 10.6789 21.1911 10.5341V6.8995C21.1913 6.75472 21.0738 6.63721 20.9291 6.63721Z" fill="white"/>
</svg>
