<svg width="33" height="32" viewBox="0 0 33 32" fill="none" xmlns="http://www.w3.org/2000/svg">
<path fill-rule="evenodd" clip-rule="evenodd" d="M0.307701 16C0.307701 7.1632 7.4709 0 16.3077 0C25.1437 0 32.3077 7.1632 32.3077 16C32.3077 24.8376 25.1429 32 16.3077 32C7.4709 32 0.307701 24.8376 0.307701 16ZM30.7077 16C30.7077 8.06 24.2477 1.6 16.3077 1.6C8.3677 1.6 1.9077 8.06 1.9077 16C1.9077 23.94 8.3669 30.4 16.3077 30.4C24.2485 30.4 30.7077 23.94 30.7077 16Z" fill="white"/>
<path fill-rule="evenodd" clip-rule="evenodd" d="M10.3373 8.5127H22.2781C23.4109 8.5127 24.3389 9.4399 24.3389 10.5743V22.5143C24.3389 23.6487 23.4109 24.5759 22.2781 24.5759H10.3373C9.2037 24.5759 8.2757 23.6487 8.2757 22.5143V10.5743C8.2757 9.4399 9.2037 8.5127 10.3373 8.5127ZM19.9781 10.2975C19.5797 10.2975 19.2549 10.6231 19.2549 11.0207V12.7519C19.2549 13.1495 19.5797 13.4743 19.9781 13.4743H21.7941C22.1909 13.4743 22.5157 13.1495 22.5157 12.7519V11.0207C22.5157 10.6231 22.1909 10.2975 21.7941 10.2975H19.9781ZM22.5237 15.3055H21.1093C21.2437 15.7423 21.3157 16.2047 21.3157 16.6847C21.3157 19.3567 19.0797 21.5223 16.3237 21.5223C13.5661 21.5223 11.3293 19.3567 11.3293 16.6847C11.3293 16.2047 11.4021 15.7423 11.5357 15.3055H10.0605V22.0911C10.0605 22.4423 10.3469 22.7303 10.6989 22.7303H21.8853C22.2357 22.7303 22.5229 22.4431 22.5229 22.0911V15.3055H22.5237ZM16.3237 13.3839C14.5405 13.3839 13.0965 14.7831 13.0965 16.5095C13.0965 18.2367 14.5405 19.6367 16.3237 19.6367C18.1045 19.6367 19.5485 18.2367 19.5485 16.5095C19.5485 14.7831 18.1045 13.3839 16.3237 13.3839Z" fill="white"/>
</svg>
