<svg width="34" height="34" viewBox="0 0 34 34" fill="none" xmlns="http://www.w3.org/2000/svg">
<path fill-rule="evenodd" clip-rule="evenodd" d="M11.6439 12.3032C12.7269 12.3032 13.4019 11.5852 13.4019 10.6872C13.3819 9.77024 12.7269 9.07324 11.6639 9.07324C10.6009 9.07324 9.90686 9.77024 9.90686 10.6872C9.90686 11.5842 10.5819 12.3032 11.6239 12.3032H11.6439ZM24.4009 22.9272V17.5672C24.4009 14.6952 22.8679 13.3592 20.8239 13.3592C19.1749 13.3592 18.4359 14.2662 18.0239 14.9032V13.5792H14.9169C14.9579 14.4562 14.9169 22.9272 14.9169 22.9272H18.0239V17.7062C18.0239 17.4272 18.0439 17.1482 18.1269 16.9492C18.3509 16.3912 18.8619 15.8132 19.7199 15.8132C20.8449 15.8132 21.2939 16.6702 21.2939 17.9262V22.9272H24.4009ZM13.1969 13.5792V22.9272H10.0909V13.5792H13.1969Z" fill="white"/>
<path fill-rule="evenodd" clip-rule="evenodd" d="M1.15385 17C1.15385 8.163 8.31685 1 17.1539 1C25.9899 1 33.1539 8.164 33.1539 17C33.1539 25.836 25.9899 33 17.1539 33C8.31785 33 1.15385 25.837 1.15385 17ZM32.1539 17C32.1539 8.729 25.4249 2 17.1539 2C8.88285 2 2.15385 8.729 2.15385 17C2.15385 25.271 8.88285 32 17.1539 32C25.4249 32 32.1539 25.271 32.1539 17Z" fill="white"/>
<path d="M17.1539 0.75C8.17878 0.75 0.903854 8.02493 0.903854 17H1.40385C1.40385 8.30107 8.45493 1.25 17.1539 1.25V0.75ZM33.4039 17C33.4039 8.02593 26.1279 0.75 17.1539 0.75V1.25C25.8518 1.25 32.9039 8.30207 32.9039 17H33.4039ZM17.1539 33.25C26.1279 33.25 33.4039 25.9741 33.4039 17H32.9039C32.9039 25.6979 25.8518 32.75 17.1539 32.75V33.25ZM0.903854 17C0.903854 25.9751 8.17979 33.25 17.1539 33.25V32.75C8.45591 32.75 1.40385 25.6989 1.40385 17H0.903854ZM17.1539 2.25C25.2868 2.25 31.9039 8.86707 31.9039 17H32.4039C32.4039 8.59093 25.5629 1.75 17.1539 1.75V2.25ZM2.40385 17C2.40385 8.86707 9.02093 2.25 17.1539 2.25V1.75C8.74478 1.75 1.90385 8.59093 1.90385 17H2.40385ZM17.1539 31.75C9.02093 31.75 2.40385 25.1329 2.40385 17H1.90385C1.90385 25.4091 8.74478 32.25 17.1539 32.25V31.75ZM31.9039 17C31.9039 25.1329 25.2868 31.75 17.1539 31.75V32.25C25.5629 32.25 32.4039 25.4091 32.4039 17H31.9039Z" fill="white"/>
</svg>
