<svg width="15" height="19" viewBox="0 0 15 19" fill="none" xmlns="http://www.w3.org/2000/svg">
<path fill-rule="evenodd" clip-rule="evenodd" d="M7.49946 1C3.91501 1 1 3.82413 1 7.37553C1 11.0943 4.25027 14.8986 6.61986 17.5723C6.62853 17.583 7.00875 18 7.47888 18C7.47996 18 7.51842 18 7.52058 18C7.99017 18 8.37093 17.583 8.37959 17.5723C10.7503 14.8986 14 11.0948 14 7.37553C14 3.82413 11.0845 1 7.49946 1Z" fill="#4288C7" stroke="white" stroke-width="0.5"/>
<path fill-rule="evenodd" clip-rule="evenodd" d="M7.5 5C8.879 5 10 6.121 10 7.5C10 8.879 8.879 10 7.5 10C6.121 10 5 8.879 5 7.5C5 6.121 6.121 5 7.5 5Z" fill="white"/>
</svg>
