<svg width="17" height="21" viewBox="0 0 17 21" fill="none" xmlns="http://www.w3.org/2000/svg">
<path fill-rule="evenodd" clip-rule="evenodd" d="M8.16669 12C10.3727 12 12.1667 10.2053 12.1667 8C12.1667 5.79467 10.3727 4 8.16669 4C5.96069 4 4.16669 5.794 4.16669 8C4.16669 10.206 5.96069 12 8.16669 12ZM8.16669 4.66667C10.0054 4.66667 11.5 6.16133 11.5 8C11.5 9.83867 10.0054 11.3333 8.16669 11.3333C6.32802 11.3333 4.83335 9.83867 4.83335 8C4.83335 6.16133 6.32802 4.66667 8.16669 4.66667Z" fill="#FF5700"/>
<path d="M8.16669 12.25C10.5108 12.25 12.4167 10.3434 12.4167 8H11.9167C11.9167 10.0673 10.2346 11.75 8.16669 11.75V12.25ZM12.4167 8C12.4167 5.65662 10.5108 3.75 8.16669 3.75V4.25C10.2346 4.25 11.9167 5.93271 11.9167 8H12.4167ZM8.16669 3.75C5.82262 3.75 3.91669 5.65593 3.91669 8H4.41669C4.41669 5.93207 6.09876 4.25 8.16669 4.25V3.75ZM3.91669 8C3.91669 10.3441 5.82262 12.25 8.16669 12.25V11.75C6.09876 11.75 4.41669 10.0679 4.41669 8H3.91669ZM8.16669 4.91667C9.86728 4.91667 11.25 6.2994 11.25 8H11.75C11.75 6.02326 10.1434 4.41667 8.16669 4.41667V4.91667ZM11.25 8C11.25 9.7006 9.86728 11.0833 8.16669 11.0833V11.5833C10.1434 11.5833 11.75 9.97674 11.75 8H11.25ZM8.16669 11.0833C6.46609 11.0833 5.08335 9.7006 5.08335 8H4.58335C4.58335 9.97674 6.18995 11.5833 8.16669 11.5833V11.0833ZM5.08335 8C5.08335 6.2994 6.46609 4.91667 8.16669 4.91667V4.41667C6.18995 4.41667 4.58335 6.02326 4.58335 8H5.08335Z" fill="#FF5700"/>
<path fill-rule="evenodd" clip-rule="evenodd" d="M8.16602 0C3.75439 0 0.166687 3.48863 0.166687 7.87566C0.166687 12.4694 4.16702 17.1688 7.08344 20.4717C7.09411 20.4848 7.56207 21 8.14069 21C8.14202 21 8.18935 21 8.19202 21C8.76997 21 9.2386 20.4848 9.24926 20.4717C12.167 17.1688 16.1667 12.4701 16.1667 7.87566C16.1667 3.48863 12.5783 0 8.16602 0ZM8.24401 19.6107C8.23002 19.6238 8.18935 19.6527 8.15402 19.675C8.14736 19.6573 8.09803 19.6186 8.06803 19.5877C5.6249 16.8203 1.49991 12.1498 1.49991 7.87566C1.49991 4.25709 4.49099 1.3125 8.16602 1.3125C11.843 1.3125 14.8335 4.25709 14.8335 7.87631C14.8335 12.1498 10.7085 16.8203 8.24401 19.6107Z" fill="#FF5700"/>
</svg>
