<svg width="31" height="31" viewBox="0 0 31 31" fill="none" xmlns="http://www.w3.org/2000/svg">
<path d="M8.17558 10.478C7.84371 10.1461 7.67259 9.75718 7.66222 9.31123C7.65185 8.86528 7.81259 8.47637 8.14446 8.1445C8.47633 7.81263 8.86524 7.65188 9.31119 7.66225C9.75714 7.67262 10.146 7.84374 10.4779 8.17561L15.736 13.4337L20.994 8.17561C21.3259 7.84374 21.7148 7.67262 22.1607 7.66225C22.6067 7.65188 22.9956 7.81263 23.3275 8.1445C23.6593 8.47637 23.8201 8.86528 23.8097 9.31123C23.7993 9.75718 23.6282 10.1461 23.2963 10.478L18.0383 15.736L23.2963 20.994C23.6282 21.3259 23.7942 21.72 23.7942 22.1763C23.7942 22.6326 23.6386 23.0164 23.3275 23.3275C22.9956 23.6594 22.6067 23.8201 22.1607 23.8097C21.7148 23.7994 21.3259 23.6283 20.994 23.2964L15.736 18.0383L10.4779 23.2964C10.146 23.6283 9.75714 23.7994 9.31119 23.8097C8.86524 23.8201 8.47633 23.6594 8.14446 23.3275C7.81259 22.9956 7.65185 22.6067 7.66222 22.1608C7.67259 21.7148 7.84371 21.3259 8.17558 20.994L13.4336 15.736L8.17558 10.478Z" fill="#A9A9A9"/>
</svg>
