<svg width="20" height="20" viewBox="0 0 20 20" fill="none" xmlns="http://www.w3.org/2000/svg">
<path fill-rule="evenodd" clip-rule="evenodd" d="M15.7437 13.9937L19.625 17.875C19.9325 18.1825 20 18.4762 20 18.75C20 19.4412 19.4412 20 18.75 20C18.35 20 18.105 19.855 17.875 19.625L13.9925 15.7437C12.53 16.8412 10.72 17.5 8.75 17.5C3.9175 17.5 0 13.5825 0 8.75C0 3.9175 3.9175 0 8.75 0C13.5825 0 17.5 3.9175 17.5 8.75C17.5 10.72 16.8412 12.53 15.7437 13.9937ZM8.75 2.5C5.2975 2.5 2.5 5.2975 2.5 8.75C2.5 12.2025 5.2975 15 8.75 15C12.2025 15 15 12.2025 15 8.75C15 5.2975 12.2025 2.5 8.75 2.5Z" fill="#008FC6"/>
</svg>
