<svg width="33" height="32" viewBox="0 0 33 32" fill="none" xmlns="http://www.w3.org/2000/svg">
<path fill-rule="evenodd" clip-rule="evenodd" d="M0.230789 16C0.230789 7.17757 7.40835 0 16.2305 0C25.0527 0 32.2308 7.17757 32.2308 16C32.2308 24.8224 25.053 32 16.2305 32C7.40835 32 0.230789 24.8224 0.230789 16ZM1.80885 16C1.80885 23.9521 8.27839 30.4219 16.2305 30.4219C24.1827 30.4219 30.6527 23.9521 30.6527 16C30.6527 8.04787 24.1827 1.57806 16.2305 1.57806C8.27839 1.57806 1.80885 8.04787 1.80885 16Z" fill="white"/>
<path fill-rule="evenodd" clip-rule="evenodd" d="M16.1649 9.84619C20.8959 9.84619 22.7156 10.1218 22.7156 10.1218C23.8923 10.1218 24.8464 11.1149 24.8462 12.3401V19.6602C24.8462 20.8851 23.8918 21.8783 22.7153 21.8783C22.7153 21.8783 20.8957 22.1539 16.1702 22.1539C11.4172 22.1539 9.74629 21.8783 9.74629 21.8783C8.56929 21.8783 7.61541 20.8851 7.61541 19.6602V12.3401C7.61541 11.1149 8.56955 10.1218 9.74629 10.1218C9.74629 10.1218 11.4172 9.84619 16.1649 9.84619ZM13.6224 12.527V19.5128L19.4331 16.0196L13.6224 12.527Z" fill="white"/>
</svg>
