<svg width="79" height="66" viewBox="0 0 79 66" fill="none" xmlns="http://www.w3.org/2000/svg">
<path d="M5.61742 60.5464C5.964 63.888 8.96489 66.3157 12.3175 65.9666L68.035 60.1666C70.8247 59.8763 73.0559 57.7271 73.4421 54.9584L78.9411 15.5325C79.408 12.1856 77.046 9.10174 73.6833 8.66799L6.88251 0.0515136C2.98069 -0.451775 -0.371319 2.80399 0.0331868 6.70415L5.61742 60.5464Z" fill="#002EFF"/>
<path fill-rule="evenodd" clip-rule="evenodd" d="M53.5758 17.1128C53.0297 16.7137 52.1754 16.7804 51.6824 17.2491L48.5427 20.2596C48.0487 20.7321 48.0905 21.4522 48.6277 21.8684C48.6277 21.8684 53.4775 25.5842 53.4775 33.5822C53.4775 41.1641 48.3648 45.5335 48.3648 45.5335C47.8496 45.9731 47.8275 46.7186 48.3215 47.192L51.4373 50.1537C51.9303 50.6271 52.7854 50.6843 53.3369 50.3012C53.3369 50.3012 60.6607 45.0904 60.6607 33.6094C60.6607 22.2083 53.5758 17.1128 53.5758 17.1128Z" fill="#FF3D00"/>
<path fill-rule="evenodd" clip-rule="evenodd" d="M23.7699 36.4763C23.7699 36.4763 22.8796 36.3869 22.8796 37.14C22.8796 41.3943 25.9022 44.426 30.6509 44.426C34.1758 44.426 35.681 43.5356 37.8099 41.8634C38.3079 41.4716 38.8388 41.1067 39.2415 41.5675C39.5222 41.8827 43.2618 45.5047 43.2618 45.5047C43.7304 45.9655 43.6021 46.5158 43.0998 46.9573C42.6009 47.4009 37.0087 51.9574 30.5825 51.9574C22.1772 51.9574 14.1071 48.1208 14.1071 33.6712C14.1071 22.0231 20.3975 15.4468 29.6263 15.4468C39.5394 15.4468 45.1429 22.7089 45.1429 32.5024V34.9802C45.1429 35.9905 44.3617 36.4763 43.7174 36.4763H23.7699ZM35.5719 26.5437C34.6157 24.4236 32.6368 22.8426 29.6263 22.8426C26.6194 22.8426 24.6377 24.4236 23.6808 26.5437C23.1343 27.8463 22.9255 28.8067 22.8571 30.3795H36.3946C36.3253 28.8067 36.1184 27.8463 35.5719 26.5437Z" fill="white"/>
</svg>
