<svg width="24" height="21" viewBox="0 0 24 21" fill="none" xmlns="http://www.w3.org/2000/svg">
<path opacity="0.5" fill-rule="evenodd" clip-rule="evenodd" d="M13.7341 5.19732C13.7341 3.9331 14.2312 2.75084 15.2254 1.6505C16.2197 0.550161 17.4104 0 18.7977 0C20.2312 0 21.4566 0.596985 22.474 1.79097C23.4913 2.98495 24 4.49497 24 6.32107C24 8.98998 23.1214 11.7525 21.3642 14.6087C19.6069 17.4649 17.4335 19.5953 14.8439 21L12.8324 16.786C14.3121 15.5217 15.3988 14.4682 16.0925 13.6254C16.7861 12.7826 17.2717 11.6589 17.5491 10.2542C16.7168 10.2542 15.8728 9.72743 15.0173 8.67391C14.1618 7.6204 13.7341 6.46154 13.7341 5.19732ZM0.832371 5.19732C0.832371 3.9331 1.34104 2.75084 2.35838 1.6505C3.37573 0.550161 4.57803 0 5.96532 0C7.39885 0 8.62427 0.596985 9.64162 1.79097C10.659 2.98495 11.1676 4.49497 11.1676 6.32107C11.1676 8.98998 10.3006 11.7525 8.56647 14.6087C6.83236 17.4649 4.67053 19.5953 2.08092 21L0 16.786C1.47978 15.5217 2.56647 14.4682 3.26012 13.6254C3.95376 12.7826 4.4393 11.6589 4.71676 10.2542C4.20809 10.2542 3.65318 10.0084 3.05202 9.51672C2.45086 9.02508 1.93064 8.38128 1.49133 7.58528C1.05202 6.78929 0.832371 5.99332 0.832371 5.19732Z" fill="#F1592A"/>
</svg>
