<svg width="36" height="31" viewBox="0 0 36 31" fill="none" xmlns="http://www.w3.org/2000/svg">
<path opacity="0.5" fill-rule="evenodd" clip-rule="evenodd" d="M14.7081 23.3278C14.7081 25.194 13.9959 26.9392 12.5714 28.5635C11.147 30.1879 9.441 31 7.45342 31C5.39958 31 3.6439 30.1187 2.18634 28.3562C0.728771 26.5936 0 24.3646 0 21.6689C0 17.7291 1.25879 13.6511 3.7764 9.43478C6.29401 5.21849 9.40785 2.07359 13.118 0L16 6.22074C13.8799 8.08697 12.323 9.64213 11.3292 10.8863C10.3354 12.1304 9.63975 13.7893 9.24224 15.8629C10.4348 15.8629 11.6439 16.6405 12.8696 18.1957C14.0952 19.7508 14.7081 21.4615 14.7081 23.3278ZM34.8075 23.3278C34.8075 25.194 34.0787 26.9392 32.6211 28.5635C31.1636 30.1879 29.441 31 27.4534 31C25.3996 31 23.6439 30.1187 22.1863 28.3562C20.7288 26.5936 20 24.3646 20 21.6689C20 17.7291 21.2422 13.6511 23.7267 9.43478C26.2112 5.21849 29.3085 2.07359 33.0186 0L36 6.22074C33.8799 8.08697 32.323 9.64213 31.3292 10.8863C30.3354 12.1304 29.6398 13.7893 29.2422 15.8629C29.971 15.8629 30.766 16.2257 31.6273 16.9515C32.4886 17.6773 33.234 18.6276 33.8634 19.8027C34.4928 20.9777 34.8075 22.1527 34.8075 23.3278Z" fill="#22B14B"/>
</svg>
