<svg width="24" height="22" viewBox="0 0 24 22" fill="none" xmlns="http://www.w3.org/2000/svg">
<path opacity="0.5" fill-rule="evenodd" clip-rule="evenodd" d="M13.7341 5.90704C13.7341 4.64282 14.2312 3.46056 15.2254 2.36022C16.2197 1.25988 17.4104 0.709717 18.7977 0.709717C20.2312 0.709717 21.4566 1.3067 22.474 2.50069C23.4913 3.69467 24 5.20469 24 7.03079C24 9.6997 23.1214 12.4622 21.3642 15.3184C19.6069 18.1746 17.4335 20.305 14.8439 21.7097L12.8324 17.4957C14.3121 16.2314 15.3988 15.1779 16.0925 14.3351C16.7861 13.4923 17.2717 12.3686 17.5491 10.9639C16.7168 10.9639 15.8728 10.4371 15.0173 9.38363C14.1618 8.33011 13.7341 7.17126 13.7341 5.90704ZM0.832371 5.90704C0.832371 4.64282 1.34104 3.46056 2.35838 2.36022C3.37573 1.25988 4.57803 0.709717 5.96532 0.709717C7.39885 0.709717 8.62427 1.3067 9.64162 2.50069C10.659 3.69467 11.1676 5.20469 11.1676 7.03079C11.1676 9.6997 10.3006 12.4622 8.56647 15.3184C6.83236 18.1746 4.67053 20.305 2.08092 21.7097L0 17.4957C1.47978 16.2314 2.56647 15.1779 3.26012 14.3351C3.95376 13.4923 4.4393 12.3686 4.71676 10.9639C4.20809 10.9639 3.65318 10.7181 3.05202 10.2264C2.45086 9.7348 1.93064 9.09099 1.49133 8.295C1.05202 7.49901 0.832371 6.70303 0.832371 5.90704Z" fill="#4288C7"/>
</svg>
