<svg width="24" height="21" viewBox="0 0 24 21" fill="none" xmlns="http://www.w3.org/2000/svg">
<path opacity="0.5" fill-rule="evenodd" clip-rule="evenodd" d="M10.2659 15.8027C10.2659 17.0669 9.76879 18.2492 8.77457 19.3495C7.78034 20.4498 6.5896 21 5.20231 21C3.76878 21 2.54336 20.403 1.52601 19.209C0.508665 18.015 0 16.505 0 14.6789C0 12.01 0.878604 9.24751 2.63584 6.3913C4.39307 3.5351 6.56646 1.40469 9.15607 0L11.1676 4.21405C9.68785 5.47827 8.60116 6.53177 7.90751 7.37458C7.21387 8.2174 6.72833 9.34113 6.45087 10.7458C7.28324 10.7458 8.12716 11.2726 8.98266 12.3261C9.83815 13.3796 10.2659 14.5385 10.2659 15.8027ZM23.1676 15.8027C23.1676 17.0669 22.659 18.2492 21.6416 19.3495C20.6243 20.4498 19.422 21 18.0347 21C16.6011 21 15.3757 20.403 14.3584 19.209C13.341 18.015 12.8324 16.505 12.8324 14.6789C12.8324 12.01 13.6994 9.24751 15.4335 6.3913C17.1676 3.5351 19.3295 1.40469 21.9191 0L24 4.21405C22.5202 5.47827 21.4335 6.53177 20.7399 7.37458C20.0462 8.2174 19.5607 9.34113 19.2832 10.7458C19.7919 10.7458 20.3468 10.9916 20.948 11.4833C21.5491 11.9749 22.0694 12.6187 22.5087 13.4147C22.948 14.2107 23.1676 15.0067 23.1676 15.8027Z" fill="#F1592A"/>
</svg>
