<svg width="36" height="31" viewBox="0 0 36 31" fill="none" xmlns="http://www.w3.org/2000/svg">
<path opacity="0.5" fill-rule="evenodd" clip-rule="evenodd" d="M21.2919 7.67224C21.2919 5.80601 22.0041 4.06077 23.4286 2.43645C24.853 0.812143 26.559 0 28.5466 0C30.6004 0 32.3561 0.881262 33.8137 2.64381C35.2712 4.40636 36 6.63544 36 9.3311C36 13.2709 34.7412 17.3489 32.2236 21.5652C29.706 25.7815 26.5922 28.9264 22.882 31L20 24.7793C22.1201 22.913 23.677 21.3579 24.6708 20.1137C25.6646 18.8696 26.3602 17.2107 26.7578 15.1371C25.5652 15.1371 24.3561 14.3595 23.1304 12.8043C21.9048 11.2492 21.2919 9.53847 21.2919 7.67224ZM1.19255 7.67224C1.19255 5.80601 1.92132 4.06077 3.37888 2.43645C4.83645 0.812143 6.559 0 8.54658 0C10.6004 0 12.3561 0.881262 13.8137 2.64381C15.2712 4.40636 16 6.63544 16 9.3311C16 13.2709 14.7578 17.3489 12.2733 21.5652C9.78881 25.7815 6.69153 28.9264 2.98137 31L0 24.7793C2.12009 22.913 3.67701 21.3579 4.67081 20.1137C5.6646 18.8696 6.36025 17.2107 6.75776 15.1371C6.02898 15.1371 5.23396 14.7743 4.37267 14.0485C3.51138 13.3227 2.76605 12.3724 2.13665 11.1973C1.50724 10.0223 1.19255 8.84727 1.19255 7.67224Z" fill="#4288C7"/>
</svg>
