<svg width="24" height="22" viewBox="0 0 24 22" fill="none" xmlns="http://www.w3.org/2000/svg">
<path opacity="0.5" fill-rule="evenodd" clip-rule="evenodd" d="M10.2659 16.5124C10.2659 17.7766 9.76879 18.9589 8.77457 20.0592C7.78034 21.1596 6.5896 21.7097 5.20231 21.7097C3.76878 21.7097 2.54336 21.1127 1.52601 19.9187C0.508665 18.7248 0 17.2147 0 15.3886C0 12.7197 0.878604 9.95722 2.63584 7.10102C4.39307 4.24482 6.56646 2.11441 9.15607 0.709717L11.1676 4.92376C9.68785 6.18798 8.60116 7.24149 7.90751 8.0843C7.21387 8.92711 6.72833 10.0508 6.45087 11.4555C7.28324 11.4555 8.12716 11.9823 8.98266 13.0358C9.83815 14.0893 10.2659 15.2482 10.2659 16.5124ZM23.1676 16.5124C23.1676 17.7766 22.659 18.9589 21.6416 20.0592C20.6243 21.1596 19.422 21.7097 18.0347 21.7097C16.6011 21.7097 15.3757 21.1127 14.3584 19.9187C13.341 18.7248 12.8324 17.2147 12.8324 15.3886C12.8324 12.7197 13.6994 9.95722 15.4335 7.10102C17.1676 4.24482 19.3295 2.11441 21.9191 0.709717L24 4.92376C22.5202 6.18798 21.4335 7.24149 20.7399 8.0843C20.0462 8.92711 19.5607 10.0508 19.2832 11.4555C19.7919 11.4555 20.3468 11.7014 20.948 12.193C21.5491 12.6846 22.0694 13.3284 22.5087 14.1244C22.948 14.9204 23.1676 15.7164 23.1676 16.5124Z" fill="#4288C7"/>
</svg>
